<svg xmlns="http://www.w3.org/2000/svg" viewBox="0 0 96 96">
  <defs>
    <linearGradient id="bg" x1="0" y1="0" x2="1" y2="1">
      <stop offset="0" stop-color="#0b1220"/>
      <stop offset="1" stop-color="#1d4ed8"/>
    </linearGradient>
  </defs>
  <rect x="6" y="6" width="84" height="84" rx="18" fill="url(#bg)"/>
  <rect x="22" y="16" width="44" height="62" rx="6" fill="#e2e8f0"/>
  <path d="M52 16v14h14" fill="#cbd5e1"/>
  <path d="M52 16l14 14v48a6 6 0 0 1-6 6H28a6 6 0 0 1-6-6V22a6 6 0 0 1 6-6z" fill="none" opacity="0.25" stroke="#0f172a" stroke-width="2"/>
  <path d="M62 40c0-5.2-4.2-9.4-9.4-9.4S43.2 34.8 43.2 40v20.2c0 3.4 2.8 6.2 6.2 6.2s6.2-2.8 6.2-6.2V42.6"
        fill="none" stroke="#0f172a" stroke-linecap="round" stroke-linejoin="round" stroke-width="4"/>
  <text x="31" y="54" font-family="Segoe UI, Arial, sans-serif" font-size="13" font-weight="700" fill="#0f172a">AF</text>
</svg>
